<svg width="1081" height="720" viewBox="0 0 1081 720" fill="none" xmlns="http://www.w3.org/2000/svg">
<path d="M812.758 587.812H340.432C305.653 587.812 277.456 570.832 277.456 549.888V322.348C277.456 301.405 305.653 284.425 340.432 284.425H812.758C847.537 284.425 875.734 301.405 875.734 322.348V549.888C875.734 570.832 847.537 587.812 812.758 587.812Z" fill="#569DFF"/>
<path d="M812.758 284.425H340.432C305.653 284.425 277.456 301.405 277.456 322.348V524.015C310.487 528.528 344.699 530.927 379.793 530.927C607.312 530.927 798.903 431.312 857.314 295.556C845.915 288.682 830.171 284.425 812.758 284.425Z" fill="#E1EDFF"/>
<path d="M277.456 360.272H214.479C197.082 360.272 182.991 368.757 182.991 379.233V493.003C182.991 503.479 197.082 511.965 214.479 511.965H277.456V360.272Z" fill="#8892A0"/>
<path d="M875.734 360.272H938.711C956.109 360.272 970.2 368.757 970.2 379.233V493.003C970.2 503.479 956.109 511.965 938.711 511.965H875.734V360.272Z" fill="#8892A0"/>
<path d="M434.897 455.08H718.293V464.561C718.293 511.69 654.859 549.888 576.595 549.888C498.331 549.888 434.897 511.69 434.897 464.561V455.08Z" fill="#EBF7FE"/>
<path d="M419.153 417.156C445.239 417.156 466.386 404.422 466.386 388.714C466.386 373.006 445.239 360.272 419.153 360.272C393.067 360.272 371.921 373.006 371.921 388.714C371.921 404.422 393.067 417.156 419.153 417.156Z" fill="#EBF7FE"/>
<path d="M734.037 417.156C760.123 417.156 781.27 404.422 781.27 388.714C781.27 373.006 760.123 360.272 734.037 360.272C707.951 360.272 686.804 373.006 686.804 388.714C686.804 404.422 707.951 417.156 734.037 417.156Z" fill="#EBF7FE"/>
<path d="M434.897 246.502H718.292V284.425H434.897V246.502Z" fill="#8892A0"/>
<path d="M576.595 208.578C602.681 208.578 623.827 195.844 623.827 180.136C623.827 164.427 602.681 151.693 576.595 151.693C550.509 151.693 529.362 164.427 529.362 180.136C529.362 195.844 550.509 208.578 576.595 208.578Z" fill="#4472B0"/>
<path d="M938.711 349.89H891.479V321.448C891.479 295.309 856.164 274.044 812.758 274.044H734.037V245.601C734.037 240.368 726.983 236.12 718.293 236.12H592.339V215.812C619.419 211.574 639.572 196.851 639.572 179.235C639.572 158.32 611.327 141.312 576.595 141.312C541.863 141.312 513.618 158.32 513.618 179.235C513.618 196.851 533.771 211.574 560.851 215.812V236.12H434.898C426.207 236.12 419.153 240.368 419.153 245.601V274.044H340.432C297.026 274.044 261.712 295.309 261.712 321.448V349.89H214.479C188.438 349.89 167.247 362.651 167.247 378.333V492.103C167.247 507.784 188.438 520.545 214.479 520.545H261.712V548.988C261.712 575.126 297.026 596.392 340.432 596.392H812.758C856.164 596.392 891.479 575.126 891.479 548.988V520.545H938.711C964.752 520.545 985.944 507.784 985.944 492.103V378.333C985.944 362.651 964.752 349.89 938.711 349.89ZM545.107 179.235C545.107 168.778 559.229 160.274 576.595 160.274C593.961 160.274 608.083 168.778 608.083 179.235C608.083 189.693 593.961 198.197 576.595 198.197C559.229 198.197 545.107 189.693 545.107 179.235ZM214.479 501.584C205.804 501.584 198.735 497.327 198.735 492.103V378.333C198.735 373.109 205.804 368.852 214.479 368.852H261.712V501.584H214.479ZM450.642 255.082H702.549V274.044H450.642V255.082ZM859.99 548.988C859.99 564.669 838.799 577.43 812.758 577.43H340.432C314.392 577.43 293.2 564.669 293.2 548.988V321.448C293.2 305.766 314.392 293.005 340.432 293.005H812.758C838.799 293.005 859.99 305.766 859.99 321.448V548.988ZM954.455 492.103C954.455 497.327 947.386 501.584 938.711 501.584H891.479V368.852H938.711C947.386 368.852 954.455 373.109 954.455 378.333V492.103Z" fill="black"/>
<path d="M718.293 444.698H434.897C426.207 444.698 419.153 448.946 419.153 454.179V463.66C419.153 515.937 489.782 558.469 576.595 558.469C663.408 558.469 734.037 515.937 734.037 463.66V454.179C734.037 448.946 726.983 444.698 718.293 444.698ZM576.595 539.507C507.147 539.507 450.642 505.48 450.642 463.66H702.548C702.548 505.48 646.043 539.507 576.595 539.507Z" fill="black"/>
<path d="M482.13 387.813C482.13 366.899 453.885 349.89 419.153 349.89C384.422 349.89 356.177 366.899 356.177 387.813C356.177 408.728 384.422 425.737 419.153 425.737C453.885 425.737 482.13 408.728 482.13 387.813ZM387.665 387.813C387.665 377.356 401.787 368.852 419.153 368.852C436.519 368.852 450.642 377.356 450.642 387.813C450.642 398.271 436.519 406.775 419.153 406.775C401.787 406.775 387.665 398.271 387.665 387.813Z" fill="black"/>
<path d="M734.037 349.89C699.305 349.89 671.06 366.899 671.06 387.813C671.06 408.728 699.305 425.737 734.037 425.737C768.769 425.737 797.014 408.728 797.014 387.813C797.014 366.899 768.769 349.89 734.037 349.89ZM734.037 406.775C716.671 406.775 702.549 398.271 702.549 387.813C702.549 377.356 716.671 368.852 734.037 368.852C751.403 368.852 765.525 377.356 765.525 387.813C765.525 398.271 751.403 406.775 734.037 406.775Z" fill="black"/>
<path d="M1006.15 326.731C987.862 314.768 966.642 308.445 944.784 308.445H914.367C902.532 308.445 892.937 318.183 892.937 330.195V561.259C892.937 573.272 902.532 583.01 914.367 583.01H944.784C1007.35 583.01 1058.25 531.348 1058.25 467.846V423.606C1058.25 384.262 1038.77 348.045 1006.15 326.731Z" fill="black"/>
<path d="M246.882 308.445H220.37C201.319 308.445 182.823 314.767 166.888 326.725C138.45 348.045 121.472 384.263 121.472 423.607V467.848C121.472 531.348 165.838 583.01 220.37 583.01H246.882C257.197 583.01 265.561 573.272 265.561 561.259V330.195C265.561 318.183 257.197 308.445 246.882 308.445Z" fill="black"/>
<path d="M589.862 33.8795C400.861 33.8795 243.523 165.619 213.313 337.92C231.761 332.036 251.132 328.843 270.842 328.455C304.15 189.732 434.539 85.9332 589.862 85.9332C745.186 85.9332 875.575 189.732 908.881 328.457C928.591 328.845 947.96 332.038 966.41 337.922C936.202 165.619 778.863 33.8795 589.862 33.8795Z" fill="black"/>
<path d="M0.409088 178.838V45.6485C0.409088 33.3839 16.1968 23.4502 35.689 23.4502H388.488C407.98 23.4502 423.768 33.3839 423.768 45.6485V178.838C423.768 191.103 407.98 201.036 388.488 201.036H229.729L159.169 245.433V201.036H35.689C16.1968 201.036 0.409088 191.103 0.409088 178.838Z" fill="#8BD2F5"/>
<path d="M381.947 45.708C381.068 45.6922 380.242 45.6487 379.346 45.6487H34.8579C15.8249 45.6487 0.409088 49.1839 0.409088 53.5484V100.947C0.409088 102.384 2.2004 103.712 5.12854 104.873C184.9 104.442 335.785 79.5464 381.947 45.708V45.708Z" fill="white"/>
<path d="M69.3072 147.542H379.346V168.224H69.3072V147.542Z" fill="black"/>
<path d="M103.755 106.178H344.897V126.86H103.755V106.178Z" fill="black"/>
<path d="M69.3072 64.8145H379.346V85.4964H69.3072V64.8145Z" fill="black"/>
<path d="M396.57 23.4502H52.0823C23.5931 23.4502 0.409088 37.3691 0.409088 54.4731V178.565C0.409088 195.669 23.5931 209.588 52.0823 209.588H155.429V240.611C155.429 244.788 159.631 248.563 166.056 250.166C168.192 250.693 170.431 250.952 172.653 250.952C177.131 250.952 181.541 249.897 184.831 247.922L248.682 209.588H396.57C425.059 209.588 448.243 195.669 448.243 178.565V54.4731C448.243 37.3691 425.059 23.4502 396.57 23.4502V23.4502ZM413.795 178.565C413.795 184.263 406.061 188.906 396.57 188.906H241.551C236.986 188.906 232.594 189.992 229.373 191.936L189.877 215.647V199.247C189.877 193.538 182.161 188.906 172.653 188.906H52.0823C42.5916 188.906 34.8579 184.263 34.8579 178.565V54.4731C34.8579 48.7752 42.5916 44.1321 52.0823 44.1321H396.57C406.061 44.1321 413.795 48.7752 413.795 54.4731V178.565Z" fill="black"/>
<g clip-path="url(#clip0)">
<path d="M779.574 452.864V463.894L738.522 463.839C686.517 463.222 637.818 450.006 606.027 427.882C598.246 422.744 586.567 419.766 574.239 419.777C561.911 419.787 550.25 422.786 542.499 427.937C510.724 450.035 462.064 463.23 410.107 463.839L369.055 463.894V452.864C369.089 446.78 378.259 441.853 389.581 441.835H405.078C446.29 441.572 485.086 431.342 510.684 413.985C526.256 403.692 549.628 397.716 574.315 397.716C599.001 397.716 622.374 403.692 637.945 413.985C663.544 431.342 702.339 441.572 743.551 441.835H759.048C770.37 441.853 779.54 446.78 779.574 452.864V452.864Z" fill="#3F51B4"/>
<path d="M759.048 441.822H743.551C702.34 441.56 663.544 431.329 637.945 413.972C619.03 401.304 588.561 395.351 558.921 398.531C577.889 400.455 594.977 405.925 607.157 413.972C632.755 431.329 671.551 441.56 712.762 441.822H728.259C739.582 441.84 748.752 446.767 748.785 452.851V463.837L779.574 463.881V452.851C779.54 446.767 770.37 441.84 759.048 441.822Z" fill="#283592"/>
<path d="M779.574 463.881V513.514C780.422 572.275 698.832 621.963 590.223 628.828C579.653 629.49 568.977 629.49 558.407 628.828C449.798 621.963 368.208 572.275 369.056 513.514V463.881L410.108 463.826C462.064 463.217 510.725 450.022 542.5 427.925C550.25 422.773 561.911 419.775 574.239 419.764C586.567 419.753 598.247 422.731 606.028 427.869C637.818 449.993 686.517 463.209 738.522 463.826L779.574 463.881Z" fill="#FFBC10"/>
<path d="M738.522 463.826C686.517 463.209 637.818 449.993 606.028 427.869C594.767 420.306 575.514 417.694 558.921 421.478C565.283 422.828 570.899 425.028 575.239 427.869C607.029 449.993 655.729 463.209 707.734 463.826L748.785 463.881V513.514C749.634 572.275 668.043 621.963 559.434 628.828H558.921C569.32 629.475 579.823 629.475 590.223 628.828C698.832 621.963 780.422 572.275 779.574 513.514V463.881L738.522 463.826Z" fill="#FFBC10"/>
<path d="M437.818 529.81C482.001 537.233 528.023 541.013 574.315 541.022C620.607 541.013 666.629 537.233 710.812 529.81C714.314 529.225 716.969 527.68 717.776 525.758C718.584 523.836 717.422 521.829 714.728 520.492C712.034 519.155 708.218 518.692 704.716 519.277C619.835 533.56 528.857 533.56 443.976 519.277C438.562 518.372 432.81 519.997 431.126 522.906C429.443 525.814 432.466 528.905 437.879 529.81H437.818Z" fill="black"/>
<path d="M439.316 496.903C483.984 500.615 529.117 502.47 574.315 502.451C619.514 502.47 664.647 500.615 709.314 496.903C712.972 496.621 716.065 495.303 717.411 493.454C718.758 491.605 718.15 489.509 715.82 487.968C713.49 486.426 709.798 485.677 706.153 486.006C618.776 493.231 529.855 493.231 442.477 486.006C436.914 485.576 431.742 487.631 430.876 490.615C430.011 493.6 433.773 496.403 439.316 496.903V496.903Z" fill="black"/>
<path d="M703.311 558.184C621.912 579.554 526.719 579.554 445.32 558.184C441.984 557.177 437.883 557.251 434.68 558.376C431.477 559.5 429.704 561.489 430.081 563.535C430.458 565.581 432.922 567.345 436.474 568.11C523.456 590.942 625.174 590.942 712.157 568.11C715.708 567.345 718.172 565.581 718.55 563.535C718.927 561.489 717.154 559.5 713.951 558.376C710.748 557.251 706.647 557.177 703.311 558.184V558.184Z" fill="black"/>
<path d="M841.152 447.337H787.949C783.615 440.75 772.049 436.336 759.049 436.307H743.551C705.437 436.04 669.575 426.559 645.92 410.498C628.395 398.92 602.099 392.198 574.325 392.198C546.552 392.198 520.256 398.92 502.731 410.498C479.071 426.562 443.201 436.042 405.079 436.307H389.582C376.581 436.336 365.015 440.75 360.681 447.337H307.478C284.806 447.337 266.426 457.213 266.426 469.396V496.97C266.426 525.955 314.724 552.63 373.346 556.976C402.288 599.484 473.642 629.472 557.392 634.326C568.645 635.01 580.006 635.01 591.259 634.326C675.001 629.468 746.346 599.481 775.285 556.976C833.907 552.63 882.204 525.955 882.204 496.97V469.396C882.204 457.213 863.824 447.337 841.152 447.337V447.337ZM389.582 447.337H405.079C449.383 447.071 491.106 436.091 518.659 417.446C532.282 408.44 552.731 403.21 574.331 403.21C595.93 403.21 616.38 408.44 630.002 417.446C657.545 436.089 699.257 447.069 743.551 447.337H759.049C764.717 447.337 769.311 449.806 769.311 452.851V458.366L738.523 458.339H738.317C689.502 457.633 643.866 445.169 614.033 424.395C604.297 417.965 589.684 414.237 574.257 414.246C558.831 414.256 544.234 418.003 534.526 424.445C504.705 445.189 459.108 457.63 410.344 458.328H410.108L379.319 458.366V452.851C379.319 449.806 383.914 447.337 389.582 447.337V447.337ZM286.952 496.97V469.396C286.952 463.304 296.142 458.366 307.478 458.366H358.793V513.514C358.826 524.166 361.395 534.773 366.439 545.075C325.664 539.797 286.952 521.08 286.952 496.97V496.97ZM589.114 623.357C579.279 623.953 569.351 623.953 559.516 623.357C481.536 618.783 415.65 590.231 390.814 550.248V550.193C383.24 538.391 379.356 525.997 379.319 513.514V469.396L410.108 469.368C465.172 468.791 516.783 454.835 550.454 431.415C556.268 427.549 565.019 425.298 574.27 425.289C583.521 425.281 592.286 427.515 598.125 431.371C631.843 454.713 683.313 468.666 738.287 469.368H738.523L769.311 469.396V513.514C769.282 525.993 765.409 538.383 757.848 550.182V550.237C733.014 590.229 667.111 618.788 589.114 623.357V623.357ZM861.678 496.97C861.678 521.08 822.966 539.797 782.191 545.086C787.237 534.78 789.807 524.17 789.837 513.514V458.366H841.152C852.488 458.366 861.678 463.304 861.678 469.396V496.97Z" fill="black"/>
</g>
<path d="M915.26 565.268L911.472 563.65C892.587 610 857.222 632.314 818.482 615.771C810.179 612.225 802.921 620.418 802.273 634.069C801.625 647.721 807.832 661.664 816.136 665.21C873.467 689.692 925.124 648.859 946.084 571.004C936.194 571.605 925.845 569.788 915.26 565.268Z" fill="#111111"/>
<defs>
<clipPath id="clip0">
<rect width="615.778" height="330.886" fill="white" transform="translate(266.426 348.071)"/>
</clipPath>
</defs>
</svg>
